<svg xmlns="http://www.w3.org/2000/svg" fill="currentColor" viewBox="0 0 22 25">
	<path d="M12.921 0h.188c.171.024.334.157.337.34.02.189-.143.312-.275.412a11.714 11.714 0 0 0-3.338 3.89 11.787 11.787 0 0 0 .507 11.941 11.822 11.822 0 0 0 4.939 4.287 11.696 11.696 0 0 0 4.848 1.084c.123.002.262.008.355.1a.35.35 0 0 1 .029.49c-.098.101-.223.17-.34.25a12.38 12.38 0 0 1-3.508 1.678c-1.1.336-2.248.492-3.396.528h-.344a12.496 12.496 0 0 1-6.548-1.961 12.518 12.518 0 0 1-5.29-7.07 12.58 12.58 0 0 1-.262-5.853c.348-1.8 1.09-3.502 2.174-4.982a12.551 12.551 0 0 1 3.95-3.518A12.526 12.526 0 0 1 12.921 0Z" />
	<path d="M14.94 3.006a.363.363 0 0 1 .41.169c.316.493.616.996.933 1.489.568.134 1.135.274 1.702.414.15.03.289.142.309.3.026.137-.054.26-.138.36-.365.428-.729.858-1.092 1.287.041.587.09 1.174.13 1.76a.361.361 0 0 1-.282.396c-.115.028-.227-.025-.332-.065l-1.53-.63c-.521.212-1.042.427-1.562.641-.106.04-.225.082-.336.04a.356.356 0 0 1-.241-.378c.036-.588.086-1.176.127-1.764l-1.09-1.285c-.097-.114-.186-.266-.13-.419.04-.137.17-.223.305-.25.536-.131 1.076-.25 1.612-.38.07-.006.095-.074.13-.124.262-.434.534-.863.798-1.296.069-.108.147-.228.277-.265Zm4.59 7.224a.356.356 0 0 1 .42-.14c.114.04.182.146.244.244.118.194.24.387.355.582.268.078.543.125.809.21.215.064.313.35.176.53-.167.226-.361.43-.537.65.017.278.05.555.059.833.012.219-.222.412-.435.348-.28-.088-.543-.221-.819-.32-.264.106-.522.231-.794.314-.212.067-.449-.121-.436-.342.005-.278.04-.554.055-.832-.174-.216-.368-.417-.53-.642-.137-.18-.044-.472.173-.534.271-.082.55-.134.824-.206.148-.23.28-.47.435-.695h.001Zm-5.364 3.286c.074-.123.195-.241.35-.232.14-.003.258.092.325.208.177.28.349.563.524.843.348.095.702.17 1.047.275.23.058.327.367.177.549-.22.278-.459.542-.685.815.022.357.06.712.076 1.069a.355.355 0 0 1-.293.35c-.102.021-.2-.025-.294-.059l-.877-.36c-.326.13-.648.274-.977.396-.22.093-.488-.09-.478-.328.01-.357.052-.712.073-1.068-.201-.238-.402-.476-.605-.713-.084-.102-.172-.226-.149-.366a.357.357 0 0 1 .284-.3c.33-.092.666-.165.997-.257.166-.275.336-.549.505-.822Z" />
</svg>
