<svg xmlns="http://www.w3.org/2000/svg" fill="currentColor" viewBox="0 0 25 25">
	<path d="M12.441 0h.11c.593.022 1.126.52 1.161 1.118.023.505.004 1.011.01 1.518-.007.364.043.752-.133 1.087a1.221 1.221 0 0 1-1.191.666c-.576-.035-1.077-.535-1.11-1.111-.023-.571-.003-1.143-.01-1.715-.003-.3-.012-.62.136-.893.191-.386.599-.643 1.027-.67ZM4.218 3.347c.406-.11.86.012 1.158.307.454.444.9.896 1.35 1.344.218.212.373.497.395.805a1.219 1.219 0 0 1-2.047.992c-.39-.376-.768-.766-1.154-1.147-.162-.164-.338-.32-.455-.523a1.216 1.216 0 0 1 .753-1.778Zm16.008-.014a1.224 1.224 0 0 1 1.38.739c.18.437.073.97-.26 1.305-.444.452-.895.897-1.342 1.346-.203.208-.468.36-.759.392a1.218 1.218 0 0 1-1.308-1.592c.067-.214.206-.396.363-.552l1.27-1.27c.18-.178.404-.321.656-.368Zm-8.482 2.956a6.24 6.24 0 0 1 4.06.9c1.51.934 2.593 2.535 2.867 4.29a6.225 6.225 0 0 1-1.18 4.787 6.252 6.252 0 0 1-3.573 2.33 6.245 6.245 0 0 1-4.573-.696 6.27 6.27 0 0 1-2.755-3.347c-.611-1.732-.405-3.735.564-5.298.971-1.62 2.712-2.751 4.59-2.966ZM0 12.449c.023-.594.521-1.126 1.118-1.161.506-.023 1.013-.004 1.52-.01.293.006.593-.026.88.053.378.107.692.41.814.784.13.383.052.828-.202 1.143-.227.29-.59.46-.957.46-.634.006-1.27.002-1.903.002a1.258 1.258 0 0 1-.807-.267A1.256 1.256 0 0 1 0 12.56v-.111Zm20.94-.787c.226-.243.555-.38.885-.382.603-.007 1.206 0 1.809-.003.25-.003.508.027.729.154.369.198.61.594.637 1.01v.11c-.023.593-.52 1.125-1.117 1.16-.524.022-1.048.003-1.572.01-.313-.006-.642.032-.94-.09a1.213 1.213 0 0 1-.755-.978 1.212 1.212 0 0 1 .324-.991Zm-15.3 6.242a1.219 1.219 0 0 1 1.384 1.674c-.104.25-.309.434-.496.622L5.43 21.297c-.199.201-.456.352-.74.384a1.22 1.22 0 0 1-1.215-.588 1.22 1.22 0 0 1 .157-1.446c.44-.456.894-.896 1.34-1.347.182-.187.408-.341.667-.396Zm13.226-.008c.39-.076.806.054 1.087.333.451.444.896.896 1.344 1.343.201.198.35.454.384.737a1.219 1.219 0 0 1-1.607 1.317c-.227-.075-.413-.232-.578-.4-.42-.425-.848-.844-1.266-1.27a1.228 1.228 0 0 1-.352-.964 1.225 1.225 0 0 1 .988-1.096Zm-6.822 2.797a1.228 1.228 0 0 1 1.217.18c.287.226.457.585.458.95.008.603 0 1.206.004 1.809.003.25-.027.51-.155.732A1.248 1.248 0 0 1 12.56 25h-.109c-.613-.021-1.155-.552-1.166-1.169-.013-.668-.006-1.337-.004-2.006a1.23 1.23 0 0 1 .764-1.132Z" />
</svg>
